# This file uses centimeters as units for non-parametric coordinates.

mtllib Character_PlayerDrillBeam.mtl
g default
v -1.362402 5.922516 18.628698
v 1.296244 5.922515 18.628698
v -2.691725 3.620062 18.628698
v -1.362402 1.317607 18.628698
v 1.296243 1.317607 18.628698
v 2.625566 3.620061 18.628698
v -1.362402 5.922516 -0.373483
v 1.296244 5.922514 -0.373484
v -2.691725 3.620062 -0.373484
v -1.362402 1.317607 -0.373483
v 1.296243 1.317607 -0.373484
v 2.625566 3.620061 -0.373484
vt 0.000000 0.000000
vt 1.000000 0.000000
vt 1.000000 1.000000
vt 0.000000 1.000000
vt 0.000000 0.000000
vt 1.000000 0.000000
vt 1.000000 1.000000
vt 0.000000 1.000000
vt 0.000000 0.000000
vt 1.000000 0.000000
vt 1.000000 1.000000
vt 0.000000 1.000000
vt 0.000000 0.000000
vt 1.000000 0.000000
vt 1.000000 1.000000
vt 0.000000 1.000000
vt 0.000000 0.000000
vt 1.000000 0.000000
vt 1.000000 1.000000
vt 0.000000 1.000000
vt 0.000000 0.000000
vt 1.000000 0.000000
vt 1.000000 1.000000
vt 0.000000 1.000000
vn -0.000001 -1.000000 0.000000
vn -0.000001 -1.000000 0.000000
vn -0.000001 -1.000000 0.000000
vn -0.000001 -1.000000 0.000000
vn 0.866025 -0.500000 0.000000
vn 0.866025 -0.500000 0.000000
vn 0.866025 -0.500000 0.000000
vn 0.866025 -0.500000 0.000000
vn 0.866025 0.500000 0.000000
vn 0.866025 0.500000 0.000000
vn 0.866025 0.500000 0.000000
vn 0.866025 0.500000 0.000000
vn 0.000000 1.000000 0.000000
vn 0.000000 1.000000 0.000000
vn 0.000000 1.000000 0.000000
vn 0.000000 1.000000 0.000000
vn -0.866025 0.500000 -0.000000
vn -0.866025 0.500000 -0.000000
vn -0.866025 0.500000 -0.000000
vn -0.866025 0.500000 -0.000000
vn -0.866025 -0.500000 0.000000
vn -0.866025 -0.500000 0.000000
vn -0.866025 -0.500000 0.000000
vn -0.866025 -0.500000 0.000000
s off
g polySurface2 pCylinder1
usemtl initialShadingGroup1
f 7/1/1 8/2/2 2/3/3 1/4/4
f 9/5/5 7/6/6 1/7/7 3/8/8
f 10/9/9 9/10/10 3/11/11 4/12/12
f 11/13/13 10/14/14 4/15/15 5/16/16
f 12/17/17 11/18/18 5/19/19 6/20/20
f 8/21/21 12/22/22 6/23/23 2/24/24
g default
v -0.805324 4.957629 20.779774
v 0.739166 4.957628 20.779774
v -1.577568 3.620061 20.779774
v -0.805324 2.282494 20.779774
v 0.739165 2.282494 20.779774
v 1.511409 3.620061 20.779774
v -0.805324 4.957629 1.777592
v 0.739166 4.957628 1.777593
v -1.577568 3.620061 1.777592
v -0.805324 2.282494 1.777593
v 0.739165 2.282494 1.777592
v 1.511409 3.620061 1.777592
vt 0.000000 0.000000
vt 1.000000 0.000000
vt 1.000000 1.000000
vt 0.000000 1.000000
vt 0.000000 0.000000
vt 1.000000 0.000000
vt 1.000000 1.000000
vt 0.000000 1.000000
vt 0.000000 0.000000
vt 1.000000 0.000000
vt 1.000000 1.000000
vt 0.000000 1.000000
vt 0.000000 0.000000
vt 1.000000 0.000000
vt 1.000000 1.000000
vt 0.000000 1.000000
vt 0.000000 0.000000
vt 1.000000 0.000000
vt 1.000000 1.000000
vt 0.000000 1.000000
vt 0.000000 0.000000
vt 1.000000 0.000000
vt 1.000000 1.000000
vt 0.000000 1.000000
vn -0.000001 -1.000000 0.000000
vn -0.000001 -1.000000 0.000000
vn -0.000001 -1.000000 0.000000
vn -0.000001 -1.000000 0.000000
vn 0.866026 -0.499999 0.000000
vn 0.866026 -0.499999 0.000000
vn 0.866026 -0.499999 0.000000
vn 0.866026 -0.499999 0.000000
vn 0.866026 0.500000 0.000000
vn 0.866026 0.500000 0.000000
vn 0.866026 0.500000 0.000000
vn 0.866026 0.500000 0.000000
vn 0.000000 1.000000 -0.000000
vn 0.000000 1.000000 -0.000000
vn 0.000000 1.000000 -0.000000
vn 0.000000 1.000000 -0.000000
vn -0.866026 0.500000 0.000000
vn -0.866026 0.500000 0.000000
vn -0.866026 0.500000 0.000000
vn -0.866026 0.500000 0.000000
vn -0.866026 -0.499999 -0.000000
vn -0.866026 -0.499999 -0.000000
vn -0.866026 -0.499999 -0.000000
vn -0.866026 -0.499999 -0.000000
s off
g pCylinder1 polySurface3
usemtl initialShadingGroup1
f 19/25/25 20/26/26 14/27/27 13/28/28
f 21/29/29 19/30/30 13/31/31 15/32/32
f 22/33/33 21/34/34 15/35/35 16/36/36
f 23/37/37 22/38/38 16/39/39 17/40/40
f 24/41/41 23/42/42 17/43/43 18/44/44
f 20/45/45 24/46/46 18/47/47 14/48/48
g default
v -0.474959 4.385417 22.467613
v 0.408800 4.385418 22.467613
v -0.916838 3.620061 22.467613
v -0.474959 2.854704 22.467613
v 0.408800 2.854704 22.467613
v 0.850680 3.620061 22.467613
v -0.474959 4.385417 3.465430
v 0.408800 4.385418 3.465431
v -0.916838 3.620061 3.465430
v -0.474959 2.854704 3.465431
v 0.408800 2.854704 3.465430
v 0.850680 3.620061 3.465430
vt 0.000000 0.000000
vt 1.000000 0.000000
vt 1.000000 1.000000
vt 0.000000 1.000000
vt 0.000000 0.000000
vt 1.000000 0.000000
vt 1.000000 1.000000
vt 0.000000 1.000000
vt 0.000000 0.000000
vt 1.000000 0.000000
vt 1.000000 1.000000
vt 0.000000 1.000000
vt 0.000000 0.000000
vt 1.000000 0.000000
vt 1.000000 1.000000
vt 0.000000 1.000000
vt 0.000000 0.000000
vt 1.000000 0.000000
vt 1.000000 1.000000
vt 0.000000 1.000000
vt 0.000000 0.000000
vt 1.000000 0.000000
vt 1.000000 1.000000
vt 0.000000 1.000000
vn 0.000001 -1.000000 0.000000
vn 0.000001 -1.000000 0.000000
vn 0.000001 -1.000000 0.000000
vn 0.000001 -1.000000 0.000000
vn 0.866025 -0.500000 0.000000
vn 0.866025 -0.500000 0.000000
vn 0.866025 -0.500000 0.000000
vn 0.866025 -0.500000 0.000000
vn 0.866025 0.500000 0.000000
vn 0.866025 0.500000 0.000000
vn 0.866025 0.500000 0.000000
vn 0.866025 0.500000 0.000000
vn 0.000000 1.000000 0.000000
vn 0.000000 1.000000 0.000000
vn 0.000000 1.000000 0.000000
vn 0.000000 1.000000 0.000000
vn -0.866025 0.500001 0.000000
vn -0.866025 0.500001 0.000000
vn -0.866025 0.500001 0.000000
vn -0.866025 0.500001 0.000000
vn -0.866025 -0.500001 -0.000000
vn -0.866025 -0.500001 -0.000000
vn -0.866025 -0.500001 -0.000000
vn -0.866025 -0.500001 -0.000000
s off
g pCylinder1 polySurface4
usemtl initialShadingGroup1
f 31/49/49 32/50/50 26/51/51 25/52/52
f 33/53/53 31/54/54 25/55/55 27/56/56
f 34/57/57 33/58/58 27/59/59 28/60/60
f 35/61/61 34/62/62 28/63/63 29/64/64
f 36/65/65 35/66/66 29/67/67 30/68/68
f 32/69/69 36/70/70 30/71/71 26/72/72
g default
v -0.233025 3.966377 22.851524
v 0.166866 3.966377 22.851524
v -0.432970 3.620061 22.851526
v -0.233025 3.273745 22.851524
v 0.166866 3.273745 22.851524
v 0.366811 3.620061 22.851524
v -0.233025 3.966377 3.849343
v 0.166866 3.966377 3.849342
v -0.432970 3.620061 3.849343
v -0.233025 3.273745 3.849343
v 0.166866 3.273745 3.849343
v 0.366811 3.620061 3.849343
vt 0.000000 0.000000
vt 1.000000 0.000000
vt 1.000000 1.000000
vt 0.000000 1.000000
vt 0.000000 0.000000
vt 1.000000 0.000000
vt 1.000000 1.000000
vt 0.000000 1.000000
vt 0.000000 0.000000
vt 1.000000 0.000000
vt 1.000000 1.000000
vt 0.000000 1.000000
vt 0.000000 0.000000
vt 1.000000 0.000000
vt 1.000000 1.000000
vt 0.000000 1.000000
vt 0.000000 0.000000
vt 1.000000 0.000000
vt 1.000000 1.000000
vt 0.000000 1.000000
vt 0.000000 0.000000
vt 1.000000 0.000000
vt 1.000000 1.000000
vt 0.000000 1.000000
vn 0.000000 -1.000000 0.000000
vn 0.000000 -1.000000 0.000000
vn 0.000000 -1.000000 0.000000
vn 0.000000 -1.000000 0.000000
vn 0.866026 -0.499999 0.000000
vn 0.866026 -0.499999 0.000000
vn 0.866026 -0.499999 0.000000
vn 0.866026 -0.499999 0.000000
vn 0.866026 0.499999 0.000000
vn 0.866026 0.499999 0.000000
vn 0.866026 0.499999 0.000000
vn 0.866026 0.499999 0.000000
vn -0.000001 1.000000 0.000000
vn -0.000001 1.000000 0.000000
vn -0.000001 1.000000 0.000000
vn -0.000001 1.000000 0.000000
vn -0.866026 0.499999 0.000000
vn -0.866026 0.499999 0.000000
vn -0.866026 0.499999 0.000000
vn -0.866026 0.499999 0.000000
vn -0.866026 -0.499999 0.000000
vn -0.866026 -0.499999 0.000000
vn -0.866026 -0.499999 0.000000
vn -0.866026 -0.499999 0.000000
s off
g pCylinder1 polySurface5
usemtl initialShadingGroup1
f 43/73/73 44/74/74 38/75/75 37/76/76
f 45/77/77 43/78/78 37/79/79 39/80/80
f 46/81/81 45/82/82 39/83/83 40/84/84
f 47/85/85 46/86/86 40/87/87 41/88/88
f 48/89/89 47/90/90 41/91/91 42/92/92
f 44/93/93 48/94/94 42/95/95 38/96/96
