# This file uses centimeters as units for non-parametric coordinates.

mtllib Character_PlayerDrill.mtl
g default
v 1.296244 5.922515 -0.373484
v -1.362402 5.922516 -0.373484
v -2.691725 3.620062 -0.373484
v -1.362402 1.317607 -0.373484
v 1.296243 1.317607 -0.373484
v 2.625566 3.620061 -0.373484
v 0.925584 5.280515 -0.385610
v -0.991742 5.280515 -0.385610
v -1.950406 3.620061 -0.385610
v -0.991743 1.959608 -0.385610
v 0.925584 1.959608 -0.385610
v 1.884247 3.620061 -0.385610
v 0.739166 4.957628 1.777592
v -0.805324 4.957629 1.777592
v -1.577568 3.620061 1.777592
v -0.805324 2.282494 1.777592
v 0.739165 2.282494 1.777592
v 1.511409 3.620061 1.777592
v 0.538074 4.609328 1.789369
v -0.604232 4.609329 1.789369
v -1.175386 3.620061 1.789369
v -0.604233 2.630794 1.789369
v 0.538074 2.630794 1.789369
v 1.109226 3.620061 1.789369
v 0.408800 4.385418 3.465431
v -0.474959 4.385418 3.465431
v -0.916838 3.620061 3.465431
v -0.474959 2.854704 3.465431
v 0.408800 2.854704 3.465431
v 0.850680 3.620061 3.465431
v 0.166866 3.966377 3.512579
v -0.233025 3.966377 3.512579
v -0.432970 3.620061 3.512579
v -0.233025 3.273745 3.512579
v 0.166866 3.273745 3.512579
v 0.366811 3.620061 3.512579
v 0.166866 3.966377 3.849342
v -0.233025 3.966377 3.849342
v -0.432970 3.620061 3.849342
v -0.233025 3.273745 3.849342
v 0.166866 3.273745 3.849342
v 0.366811 3.620061 3.849342
v -0.033079 3.620061 -3.021209
v -0.033079 3.620061 5.021209
v 0.396504 4.364121 -3.021209
v 1.032716 5.466072 -2.494153
v 1.296244 5.922515 -1.221730
v -0.462663 4.364121 -3.021209
v -1.098874 5.466073 -2.494153
v -1.362402 5.922516 -1.221730
v -0.892246 3.620061 -3.021209
v -2.164669 3.620062 -2.494154
v -2.691725 3.620062 -1.221730
v -0.462663 2.876001 -3.021209
v -1.098875 1.774050 -2.494154
v -1.362402 1.317607 -1.221730
v 0.396504 2.876001 -3.021209
v 1.032715 1.774050 -2.494154
v 1.296243 1.317607 -1.221730
v 0.826087 3.620061 -3.021209
v 2.098511 3.620061 -2.494154
v 2.625566 3.620061 -1.221730
vt 0.686427 0.537535
vt 0.686427 0.803389
vt 0.601606 0.803389
vt 0.601606 0.537535
vt 0.873748 0.998008
vt 0.873748 0.767771
vt 0.958569 0.767771
vt 0.958569 0.998008
vt 0.873748 0.537535
vt 0.958569 0.537535
vt 0.692320 0.803389
vt 0.692320 0.537535
vt 0.777141 0.537535
vt 0.777141 0.803389
vt 0.867855 0.537535
vt 0.867855 0.767771
vt 0.783034 0.767771
vt 0.783034 0.537535
vt 0.867855 0.998008
vt 0.783034 0.998008
vt 0.930558 0.134919
vt 0.930558 0.400774
vt 0.866360 0.363709
vt 0.866360 0.171984
vt 0.700321 0.533701
vt 0.700321 0.459572
vt 0.834073 0.345068
vt 0.834072 0.190625
vt 0.700321 0.001992
vt 0.700321 0.076121
vt 0.470084 0.400774
vt 0.534282 0.363709
vt 0.700321 0.422289
vt 0.799244 0.324960
vt 0.799244 0.210733
vt 0.700321 0.113403
vt 0.470084 0.134919
vt 0.534282 0.171984
vt 0.566569 0.345068
vt 0.700321 0.382073
vt 0.776854 0.312033
vt 0.776854 0.223660
vt 0.700321 0.153620
vt 0.566569 0.190625
vt 0.601398 0.324960
vt 0.700321 0.356219
vt 0.734951 0.287840
vt 0.734951 0.247853
vt 0.700321 0.179474
vt 0.601398 0.210733
vt 0.623788 0.312033
vt 0.700321 0.307834
vt 0.700321 0.227859
vt 0.623788 0.223660
vt 0.665691 0.287840
vt 0.665691 0.247853
vt 0.549832 0.688392
vt 0.509845 0.688392
vt 0.509845 0.654717
vt 0.549832 0.654717
vt 0.529838 0.537535
vt 0.470277 0.606795
vt 0.470277 0.572165
vt 0.503952 0.572165
vt 0.503952 0.606795
vt 0.470277 0.537535
vt 0.503952 0.537535
vt 0.555725 0.537535
vt 0.595713 0.537535
vt 0.595713 0.571210
vt 0.555725 0.571210
vt 0.575719 0.688392
vt 0.464384 0.537535
vt 0.464384 0.572165
vt 0.430709 0.572165
vt 0.430709 0.537535
vt 0.464384 0.606795
vt 0.430709 0.606795
vt 0.157747 0.310803
vt 0.157747 0.224890
vt 0.232150 0.267846
vt 0.047556 0.161271
vt 0.047556 0.374422
vt 0.232150 0.181933
vt 0.232150 0.353760
vt 0.232150 0.054696
vt 0.232150 0.480997
vt 0.001914 0.134919
vt 0.001913 0.400774
vt 0.306553 0.224890
vt 0.306553 0.310803
vt 0.232150 0.001992
vt 0.416744 0.161271
vt 0.416744 0.374422
vt 0.232150 0.533701
vt 0.462387 0.134919
vt 0.462387 0.400774
vt 0.404822 0.606795
vt 0.384829 0.572165
vt 0.424816 0.572165
vt 0.404822 0.537535
vt 0.358942 0.537535
vt 0.378936 0.572165
vt 0.338948 0.572165
vt 0.358942 0.606795
vn 0.000001 0.993127 -0.117044
vn 0.000001 0.993127 -0.117044
vn 0.000001 0.980197 0.198023
vn 0.000001 0.980197 0.198023
vn -0.860073 0.496563 -0.117044
vn -0.860073 0.496563 -0.117044
vn -0.848876 0.490099 0.198023
vn -0.848876 0.490099 0.198023
vn -0.860073 -0.496563 -0.117044
vn -0.860073 -0.496563 -0.117044
vn -0.848876 -0.490099 0.198023
vn -0.848876 -0.490099 0.198023
vn -0.000000 -0.993127 -0.117044
vn -0.000000 -0.993127 -0.117044
vn 0.000000 -0.980197 0.198023
vn 0.000000 -0.980197 0.198023
vn 0.860073 -0.496563 -0.117044
vn 0.860073 -0.496563 -0.117044
vn 0.848876 -0.490099 0.198023
vn 0.848876 -0.490099 0.198023
vn 0.860073 0.496563 -0.117044
vn 0.860073 0.496563 -0.117044
vn 0.848876 0.490099 0.198023
vn 0.848876 0.490099 0.198023
vn 0.000000 0.927922 0.372774
vn 0.000000 0.927922 0.372774
vn -0.803604 0.463961 0.372774
vn -0.803604 0.463961 0.372774
vn -0.803604 -0.463961 0.372774
vn -0.803604 -0.463961 0.372774
vn 0.000000 -0.927922 0.372774
vn 0.000000 -0.927922 0.372774
vn 0.803604 -0.463961 0.372774
vn 0.803604 -0.463961 0.372774
vn 0.803604 0.463961 0.372774
vn 0.803604 0.463961 0.372774
vn 0.000000 0.929605 0.368557
vn 0.000000 0.929605 0.368557
vn -0.805062 0.464803 0.368556
vn -0.805062 0.464803 0.368556
vn -0.805062 -0.464803 0.368557
vn -0.805062 -0.464803 0.368557
vn 0.000000 -0.929605 0.368556
vn 0.000000 -0.929605 0.368556
vn 0.805062 -0.464803 0.368556
vn 0.805062 -0.464803 0.368556
vn 0.805062 0.464802 0.368556
vn 0.805062 0.464802 0.368556
vn 0.000000 0.937217 0.348746
vn 0.000000 0.937217 0.348746
vn -0.811654 0.468609 0.348745
vn -0.811654 0.468609 0.348745
vn -0.811655 -0.468608 0.348745
vn -0.811655 -0.468608 0.348745
vn 0.000000 -0.937217 0.348746
vn 0.000000 -0.937217 0.348746
vn 0.811654 -0.468609 0.348745
vn 0.811654 -0.468609 0.348745
vn 0.811654 0.468609 0.348745
vn 0.811654 0.468609 0.348745
vn 0.000000 0.939330 0.343014
vn 0.000000 0.939330 0.343014
vn -0.813484 0.469665 0.343013
vn -0.813484 0.469665 0.343013
vn -0.813484 -0.469665 0.343013
vn -0.813484 -0.469665 0.343013
vn 0.000000 -0.939330 0.343014
vn 0.000000 -0.939330 0.343014
vn 0.813484 -0.469665 0.343013
vn 0.813484 -0.469665 0.343013
vn 0.813484 0.469665 0.343013
vn 0.813484 0.469665 0.343013
vn 0.000000 0.981189 0.193050
vn 0.000000 0.981189 0.193050
vn -0.849735 0.490594 0.193050
vn -0.849735 0.490594 0.193050
vn -0.849735 -0.490593 0.193050
vn -0.849735 -0.490593 0.193050
vn 0.000000 -0.981189 0.193050
vn 0.000000 -0.981189 0.193050
vn 0.849735 -0.490594 0.193050
vn 0.849735 -0.490594 0.193050
vn 0.849735 0.490594 0.193050
vn 0.849735 0.490594 0.193050
vn 0.000000 1.000000 -0.000000
vn 0.000000 1.000000 -0.000000
vn -0.866026 0.500000 -0.000000
vn -0.866026 0.500000 -0.000000
vn -0.866026 -0.499999 0.000000
vn -0.866026 -0.499999 0.000000
vn 0.000000 -1.000000 0.000000
vn 0.000000 -1.000000 0.000000
vn 0.866026 -0.500000 0.000000
vn 0.866026 -0.500000 0.000000
vn 0.866026 0.499999 -0.000000
vn 0.866026 0.499999 -0.000000
vn -0.101177 0.175245 -0.979312
vn 0.101177 0.175245 -0.979312
vn 0.000000 0.000000 -1.000000
vn -0.202355 0.000000 -0.979312
vn -0.101177 -0.175244 -0.979312
vn 0.101177 -0.175244 -0.979312
vn 0.202355 0.000000 -0.979312
vn 0.473207 0.819618 0.322957
vn -0.473207 0.819618 0.322957
vn 0.000000 0.000000 1.000000
vn -0.946414 0.000000 0.322957
vn -0.473208 -0.819618 0.322957
vn 0.473207 -0.819618 0.322957
vn 0.946414 -0.000000 0.322957
vn 0.000001 0.941271 -0.337652
vn 0.000001 0.941271 -0.337652
vn 0.000000 0.431480 -0.902122
vn 0.000000 0.431480 -0.902122
vn 0.373672 0.215740 -0.902123
vn 0.373672 0.215740 -0.902123
vn 0.815164 0.470636 -0.337652
vn 0.815164 0.470636 -0.337652
vn -0.815165 0.470636 -0.337652
vn -0.815165 0.470636 -0.337652
vn -0.373672 0.215740 -0.902123
vn -0.373672 0.215740 -0.902123
vn -0.815165 -0.470635 -0.337652
vn -0.815165 -0.470635 -0.337652
vn -0.373672 -0.215739 -0.902123
vn -0.373672 -0.215739 -0.902123
vn -0.000000 -0.941271 -0.337652
vn -0.000000 -0.941271 -0.337652
vn -0.000000 -0.431478 -0.902123
vn -0.000000 -0.431478 -0.902123
vn 0.815165 -0.470636 -0.337652
vn 0.815165 -0.470636 -0.337652
vn 0.373672 -0.215739 -0.902123
vn 0.373672 -0.215739 -0.902123
s 1
g pCylinder1
usemtl initialShadingGroup
f 47/1/1 50/2/2 2/3/3 1/4/4
s 2
f 50/5/5 53/6/6 3/7/7 2/8/8
s 3
f 53/6/9 56/9/10 4/10/11 3/7/12
s 4
f 56/11/13 59/12/14 5/13/15 4/14/16
s 5
f 59/15/17 62/16/18 6/17/19 5/18/20
s 6
f 62/16/21 47/19/22 1/20/23 6/17/24
s 1
f 1/21/4 2/22/3 8/23/25 7/24/26
s 2
f 2/22/8 3/25/7 9/26/27 8/23/28
s 3
f 3/25/12 4/31/11 10/32/29 9/26/30
s 4
f 4/31/16 5/37/15 11/38/31 10/32/32
s 5
f 5/37/20 6/29/19 12/30/33 11/38/34
s 6
f 6/29/24 1/21/23 7/24/35 12/30/36
s 1
f 7/24/26 8/23/25 14/27/37 13/28/38
s 2
f 8/23/28 9/26/27 15/33/39 14/27/40
s 3
f 9/26/30 10/32/29 16/39/41 15/33/42
s 4
f 10/32/32 11/38/31 17/44/43 16/39/44
s 5
f 11/38/34 12/30/33 18/36/45 17/44/46
s 6
f 12/30/36 7/24/35 13/28/47 18/36/48
s 1
f 13/28/38 14/27/37 20/34/49 19/35/50
s 2
f 14/27/40 15/33/39 21/40/51 20/34/52
s 3
f 15/33/42 16/39/41 22/45/53 21/40/54
s 4
f 16/39/44 17/44/43 23/50/55 22/45/56
s 5
f 17/44/46 18/36/45 24/43/57 23/50/58
s 6
f 18/36/48 13/28/47 19/35/59 24/43/60
s 1
f 19/35/50 20/34/49 26/41/61 25/42/62
s 2
f 20/34/52 21/40/51 27/46/63 26/41/64
s 3
f 21/40/54 22/45/53 28/51/65 27/46/66
s 4
f 22/45/56 23/50/55 29/54/67 28/51/68
s 5
f 23/50/58 24/43/57 30/49/69 29/54/70
s 6
f 24/43/60 19/35/59 25/42/71 30/49/72
s 1
f 25/42/62 26/41/61 32/47/73 31/48/74
s 2
f 26/41/64 27/46/63 33/52/75 32/47/76
s 3
f 27/46/66 28/51/65 34/55/77 33/52/78
s 4
f 28/51/68 29/54/67 35/56/79 34/55/80
s 5
f 29/54/70 30/49/69 36/53/81 35/56/82
s 6
f 30/49/72 25/42/71 31/48/83 36/53/84
s 1
f 31/57/74 32/58/73 38/59/85 37/60/86
s 2
f 32/62/76 33/63/75 39/64/87 38/65/88
s 3
f 33/63/78 34/66/77 40/67/89 39/64/90
s 4
f 34/68/80 35/69/79 41/70/91 40/71/92
s 5
f 35/73/82 36/74/81 42/75/93 41/76/94
s 6
f 36/74/84 31/77/83 37/78/95 42/75/96
s 7
f 48/79/97 45/80/98 43/81/99
f 51/85/100 48/79/97 43/81/99
f 54/91/101 51/85/100 43/81/99
f 57/90/102 54/91/101 43/81/99
f 60/84/103 57/90/102 43/81/99
f 45/80/98 60/84/103 43/81/99
s 8
f 37/60/104 38/59/105 44/61/106
f 38/98/105 39/99/107 44/100/106
f 39/99/107 40/101/108 44/100/106
f 40/71/108 41/70/109 44/72/106
f 41/102/109 42/103/110 44/104/106
f 42/103/110 37/105/104 44/104/106
s 1
f 47/88/1 46/82/111 49/83/112 50/89/2
s 7
f 46/82/113 45/80/98 48/79/97 49/83/114
f 45/80/98 46/82/115 61/86/116 60/84/103
s 6
f 46/82/117 47/88/22 62/92/21 61/86/118
s 2
f 50/89/5 49/83/119 52/87/120 53/95/6
s 7
f 49/83/121 48/79/97 51/85/100 52/87/122
s 3
f 53/95/9 52/87/123 55/94/124 56/97/10
s 7
f 52/87/125 51/85/100 54/91/101 55/94/126
s 4
f 56/97/13 55/94/127 58/93/128 59/96/14
s 7
f 55/94/129 54/91/101 57/90/102 58/93/130
s 5
f 59/96/17 58/93/131 61/86/132 62/92/18
s 7
f 58/93/133 57/90/102 60/84/103 61/86/134
